<?xml version="1.0" encoding="utf-8"?>
<!-- Generator: Adobe Illustrator 23.0.3, SVG Export Plug-In . SVG Version: 6.00 Build 0)  -->
<svg version="1.1" id="Ebene_1" xmlns="http://www.w3.org/2000/svg" xmlns:xlink="http://www.w3.org/1999/xlink" x="0px" y="0px"
	 viewBox="0 0 557.33 189.8" style="enable-background:new 0 0 557.33 189.8;" xml:space="preserve">
<style type="text/css">
	.st0{fill:#123D4C;}
	.st1{fill:#247194;}
</style>
<g>
	<g>
		<g>
			
				<rect x="54.45" y="-47.34" transform="matrix(-1.836970e-16 1 -1 -1.836970e-16 81.3586 -50.3912)" class="st0" width="22.85" height="125.66"/>
			
				<rect x="-14.46" y="43.92" transform="matrix(-1.836970e-16 1 -1 -1.836970e-16 69.8094 40.8694)" class="st0" width="57.85" height="22.85"/>
		</g>
		<g>
			
				<rect x="100.14" y="106.87" transform="matrix(-1.836970e-16 1 -1 -1.836970e-16 281.2666 58.1303)" class="st0" width="22.85" height="125.66"/>
			
				<rect x="134.05" y="118.66" transform="matrix(-1.836970e-16 1 -1 -1.836970e-16 293.0587 -32.8875)" class="st0" width="57.85" height="22.85"/>
		</g>
		
			<rect x="60.16" y="66.89" transform="matrix(-1.836970e-16 1 -1 -1.836970e-16 184.1684 6.7254)" class="st1" width="57.12" height="57.12"/>
	</g>
	<g>
		<g>
			<path class="st1" d="M226.36,5.52h32.84c15.26,0,23.58,10.31,23.58,22.63c0,12.21-8.42,22.42-23.58,22.42H241.3v25.16h-14.95
				V5.52z M257.2,18.36H241.3v19.37h15.89c5.89,0,10.32-3.79,10.32-9.68C267.51,22.26,263.09,18.36,257.2,18.36z"/>
			<path class="st1" d="M291.72,24.89h13.37v6.95c3.58-4.53,9.89-8.1,16.21-8.1v13.05c-0.95-0.21-2.21-0.32-3.68-0.32
				c-4.42,0-10.31,2.42-12.53,5.68v33.58h-13.37V24.89z"/>
			<path class="st1" d="M326.35,50.26c0-14.42,10.1-26.63,26.84-26.63c16.84,0,26.95,12.21,26.95,26.63
				c0,14.53-10.1,26.73-26.95,26.73C336.45,76.99,326.35,64.78,326.35,50.26z M366.24,50.26c0-7.89-4.74-14.74-13.05-14.74
				c-8.31,0-12.95,6.84-12.95,14.74c0,8,4.63,14.84,12.95,14.84C361.5,65.1,366.24,58.26,366.24,50.26z"/>
			<path class="st1" d="M403.39,77.1c0,11.58-5.89,19.26-18.1,19.26c-2.42,0-4.21-0.21-5.79-0.53l0.84-10.95
				c0.84,0.21,2.11,0.32,2.95,0.32c3.89,0,6.74-2.42,6.74-8.1V24.89h13.37V77.1z M388.66,9.42c0-4.42,3.68-8,8-8c4.42,0,8,3.58,8,8
				c0,4.42-3.58,8-8,8C392.34,17.42,388.66,13.84,388.66,9.42z"/>
			<path class="st1" d="M439.7,23.63c15.16,0,25.47,11.37,25.47,28v2.95h-37.79c0.84,6.42,6,11.79,14.63,11.79
				c4.74,0,10.31-1.89,13.58-5.05l5.89,8.63c-5.16,4.74-13.05,7.05-20.95,7.05c-15.47,0-27.16-10.42-27.16-26.73
				C413.39,35.52,424.23,23.63,439.7,23.63z M427.18,45.52h25.05c-0.32-4.84-3.68-11.26-12.53-11.26
				C431.39,34.26,427.81,40.47,427.18,45.52z"/>
			<path class="st1" d="M498.54,23.63c10.42,0,16.74,4.53,20.1,9.26l-8.74,8.1c-2.42-3.47-6.1-5.47-10.74-5.47
				c-8.1,0-13.79,5.89-13.79,14.74c0,8.84,5.68,14.84,13.79,14.84c4.63,0,8.31-2.11,10.74-5.47l8.74,8.11
				c-3.37,4.74-9.68,9.26-20.1,9.26c-15.68,0-26.95-11.05-26.95-26.73C471.6,34.68,482.86,23.63,498.54,23.63z"/>
			<path class="st1" d="M530.01,63.1V36.57h-8.42V24.89h8.42V11h13.47v13.89h10.31v11.68h-10.31v22.95c0,3.16,1.68,5.58,4.63,5.58
				c2,0,3.89-0.74,4.63-1.47l2.84,10.1c-2,1.79-5.58,3.26-11.16,3.26C535.06,76.99,530.01,72.15,530.01,63.1z"/>
		</g>
		<g>
			<path class="st0" d="M224.39,164.28c4.95,5.16,12.63,9.47,22.31,9.47c8.21,0,12.21-3.89,12.21-7.89c0-5.26-6.1-7.05-14.21-8.95
				c-11.47-2.63-26.21-5.79-26.21-21.47c0-11.68,10.1-21.16,26.63-21.16c11.16,0,20.42,3.37,27.37,9.79l-8.32,10.95
				c-5.68-5.26-13.26-7.68-20.1-7.68c-6.74,0-10.32,2.95-10.32,7.16c0,4.74,5.89,6.21,14,8.1c11.58,2.63,26.31,6.11,26.31,21.68
				c0,12.84-9.16,22.52-28.1,22.52c-13.47,0-23.16-4.53-29.79-11.16L224.39,164.28z"/>
			<path class="st0" d="M318.28,154.6c0-7.05-3.68-9.26-9.47-9.26c-5.16,0-9.26,2.95-11.58,6v34.21h-13.37v-70.21h13.37v26
				c3.26-3.89,9.58-7.89,17.89-7.89c11.16,0,16.53,6.11,16.53,16v36.1h-13.37V154.6z"/>
			<path class="st0" d="M367.96,133.44c15.16,0,25.47,11.37,25.47,28v2.95h-37.79c0.84,6.42,6,11.79,14.63,11.79
				c4.74,0,10.31-1.89,13.58-5.05l5.89,8.63c-5.16,4.74-13.05,7.05-20.95,7.05c-15.47,0-27.16-10.42-27.16-26.73
				C341.64,145.34,352.48,133.44,367.96,133.44z M355.43,155.34h25.05c-0.32-4.84-3.68-11.26-12.53-11.26
				C359.64,144.07,356.06,150.28,355.43,155.34z"/>
			<path class="st0" d="M426.16,133.44c15.16,0,25.47,11.37,25.47,28v2.95h-37.79c0.84,6.42,6,11.79,14.63,11.79
				c4.74,0,10.31-1.89,13.58-5.05l5.89,8.63c-5.16,4.74-13.05,7.05-20.95,7.05c-15.47,0-27.16-10.42-27.16-26.73
				C399.85,145.34,410.69,133.44,426.16,133.44z M413.64,155.34h25.05c-0.32-4.84-3.68-11.26-12.53-11.26
				C417.85,144.07,414.27,150.28,413.64,155.34z"/>
			<path class="st0" d="M463.95,172.91v-26.52h-8.42v-11.68h8.42v-13.89h13.47v13.89h10.31v11.68h-10.31v22.95
				c0,3.16,1.68,5.58,4.63,5.58c2,0,3.89-0.74,4.63-1.47l2.84,10.1c-2,1.79-5.58,3.26-11.16,3.26
				C469,186.81,463.95,181.97,463.95,172.91z"/>
			<path class="st0" d="M498.26,169.55c3.68,3.47,11.26,6.95,17.58,6.95c5.79,0,8.53-2,8.53-5.16c0-3.58-4.42-4.84-10.21-6
				c-8.74-1.68-20-3.79-20-15.89c0-8.53,7.47-16,20.84-16c8.63,0,15.47,2.95,20.42,6.95l-5.26,9.16c-3.05-3.26-8.84-5.89-15.05-5.89
				c-4.84,0-8,1.79-8,4.74c0,3.16,4,4.32,9.68,5.47c8.74,1.68,20.42,4,20.42,16.63c0,9.37-7.89,16.31-22,16.31
				c-8.84,0-17.37-2.95-22.74-7.89L498.26,169.55z"/>
		</g>
	</g>
</g>
<g>
</g>
<g>
</g>
<g>
</g>
<g>
</g>
<g>
</g>
<g>
</g>
</svg>
